PathFileType	4	(X/Y/Z)	C:\Data\4407\4407cd01.trc
DataRate	CameraRate	NumFrames	NumMarkers	Units	OrigDataRate	OrigDataStartFrame	OrigNumFrames
200.00	200.00	       9	33	mm	200.00	226	       451
Frame#	Time	Offset			RShoulder			RUpperArm			RElbow			RForearm			RWrist			LShoulder			LUpperArm			LElbow			LForearm			LWrist			LPSIS			RPSIS			RASIS			RThigh			RKnee			RShank			RAnkle			RHeel			RLat5			RToe			LASIS			LThigh			LKnee			LShank			LAnkle			LHeel			LLat5			LToe			RMed.Knee			LMed.Knee			RMed.Ankle			LMed.Ankle			
		X1	Y1	Z1	X2	Y2	Z2	X3	Y3	Z3	X4	Y4	Z4	X5	Y5	Z5	X6	Y6	Z6	X7	Y7	Z7	X8	Y8	Z8	X9	Y9	Z9	X10	Y10	Z10	X11	Y11	Z11	X12	Y12	Z12	X13	Y13	Z13	X14	Y14	Z14	X15	Y15	Z15	X16	Y16	Z16	X17	Y17	Z17	X18	Y18	Z18	X19	Y19	Z19	X20	Y20	Z20	X21	Y21	Z21	X22	Y22	Z22	X23	Y23	Z23	X24	Y24	Z24	X25	Y25	Z25	X26	Y26	Z26	X27	Y27	Z27	X28	Y28	Z28	X29	Y29	Z29	X30	Y30	Z30	X31	Y31	Z31	X32	Y32	Z32	X33	Y33	Z33	

226	1.125	328.09067	-306.54626	1396.21985	417.21976	-206.26035	1539.18237	538.22345	-272.57318	1404.21411	703.63995	-265.36691	1405.57056	846.24469	-251.43666	1326.00842	964.92932	-193.32477	1379.83472	129.76123	-213.38303	1541.66223	-7.26305	-281.41486	1388.65710	-138.60097	-284.85229	1398.14758	-279.90543	-275.13837	1328.67175	-421.96078	-204.61964	1346.91895	251.02701	-311.40857	1031.59082	300.53607	-310.88742	1033.51819	396.61243	-97.19885	1019.41882	370.22787	-101.95188	691.91815	452.10559	-201.79538	520.46106	420.22040	-173.70042	444.51614	462.78128	-247.16281	110.89947	417.83414	-303.28040	76.33335	515.96552	-107.96165	62.04317	410.55170	-92.11671	57.11234	142.80333	-103.02739	997.91736	147.39525	-111.11323	663.61371	98.73342	-204.89645	519.18573	131.95145	-177.60860	444.12799	93.13062	-266.90634	111.12880	145.74718	-318.85785	81.03656	41.49118	-121.92567	57.79869	150.42752	-105.14491	49.00295	342.01224	-196.87840	501.27698	202.17447	-192.29729	481.03256	376.46597	-207.50174	121.49098	178.91685	-222.38599	116.61195	
227	1.130	328.04889	-306.62518	1396.21741	417.21149	-206.27141	1539.21643	538.24518	-272.57040	1404.17859	703.61816	-265.37454	1405.55481	846.12830	-251.49800	1326.00684	964.87860	-193.34866	1379.76831	129.72881	-213.38847	1541.62500	-7.25173	-281.39728	1388.60767	-138.62177	-284.86395	1398.12134	-279.90457	-275.11105	1328.56055	-421.98297	-204.66312	1346.89575	251.03166	-311.44183	1031.54614	300.57175	-311.08847	1033.56775	396.60455	-97.20293	1019.44324	370.24570	-102.04753	691.92902	452.17093	-201.80963	520.44232	420.23157	-173.68257	444.53824	462.48398	-247.02356	110.94855	417.79816	-303.29837	76.37590	515.95630	-107.99397	62.00592	410.57004	-92.12328	57.09755	142.85672	-103.00394	997.93939	147.25240	-111.32935	663.59070	98.75620	-204.91254	519.19696	131.97116	-177.67937	444.14435	93.12928	-266.93073	111.12251	145.78641	-318.85498	81.04722	41.48625	-121.90482	57.84260	150.44678	-105.18427	48.94666	341.93411	-196.88011	501.20679	202.17084	-192.30551	481.02808	376.49326	-207.48222	121.44814	178.91960	-222.37183	116.61958	
228	1.135	328.04581	-306.62939	1396.22461	417.20978	-206.25481	1539.20703	538.16479	-272.58252	1404.17969	703.65399	-265.42612	1405.56274	846.11676	-251.53920	1326.01453	964.91394	-193.36961	1379.74170	129.73714	-213.46075	1541.64050	-7.30638	-281.41431	1388.58472	-138.59627	-284.88483	1398.11230	-279.85568	-275.14972	1328.59070	-421.99814	-204.72307	1346.87915	251.03377	-311.51663	1031.54590	300.55460	-311.09399	1033.57446	396.61362	-97.22672	1019.36743	370.28149	-101.99495	691.92896	452.15103	-201.81506	520.43018	420.22073	-173.68132	444.52664	462.86954	-247.34969	111.12891	417.82468	-303.33914	76.34523	515.98633	-107.99608	62.01629	410.59671	-92.13326	57.07998	142.86194	-103.06155	997.96326	147.27284	-111.41477	663.55457	98.74551	-204.89407	519.20013	131.95422	-177.68285	444.14420	93.12086	-266.85803	111.15401	145.72766	-318.87747	81.06813	41.51992	-122.02089	57.76693	150.41663	-105.06651	49.02814	342.14185	-196.84793	501.26331	202.17464	-192.41982	481.03516	376.53076	-207.45932	121.51205	178.88753	-222.28592	116.59927	
229	1.140	328.04099	-306.63544	1396.22400	417.18472	-206.30692	1539.21094	538.16608	-272.50613	1404.10168	703.53717	-265.47061	1405.56030	846.12067	-251.60599	1326.01941	964.85284	-193.39595	1379.73291	129.68127	-213.44949	1541.60498	-7.32576	-281.41953	1388.53723	-138.59390	-284.90359	1398.10413	-279.87943	-275.21622	1328.57422	-422.00104	-204.77539	1346.87061	251.12051	-311.48752	1031.53186	300.58719	-311.08615	1033.55566	396.68140	-97.25313	1019.43579	370.26282	-101.99979	691.91913	452.17673	-201.85223	520.38733	420.27249	-173.65067	444.53702	462.59897	-247.16429	111.14283	417.78159	-303.30118	76.34493	515.94476	-107.99040	62.06122	410.60272	-92.08150	57.07898	142.82938	-103.06219	997.90948	147.27444	-111.46372	663.54626	98.80302	-204.88702	519.21399	131.98119	-177.65764	444.14954	93.03865	-266.85962	111.23737	145.73979	-318.86972	81.05032	41.55196	-121.92113	57.81474	150.39864	-105.15602	49.00629	342.13425	-196.83791	501.24106	202.16411	-192.38809	481.02145	376.47946	-207.53976	121.48926	178.94414	-222.29239	116.64990	
230	1.145	328.08374	-306.60516	1396.24561	417.21121	-206.26601	1539.20947	538.08716	-272.49084	1404.07544	703.56189	-265.50778	1405.53992	846.11450	-251.58487	1326.00525	964.78528	-193.44325	1379.67480	129.69290	-213.49727	1541.57397	-7.30147	-281.40494	1388.49939	-138.61821	-284.94803	1398.08887	-279.84616	-275.22394	1328.46057	-422.00641	-204.79539	1346.82458	251.09296	-311.53525	1031.56006	300.62836	-311.00922	1033.54358	396.61771	-97.26220	1019.38684	370.26587	-102.02034	691.91150	452.22528	-201.81631	520.42017	420.24872	-173.69414	444.54465	462.79462	-247.05693	110.91097	417.87085	-303.26477	76.33176	515.97241	-107.95216	62.01377	410.56870	-92.10989	57.14399	142.92468	-103.07700	997.96179	147.24464	-111.56009	663.57031	98.82655	-204.92586	519.18738	131.93425	-177.69731	444.13852	93.15296	-266.84192	111.15915	145.73428	-318.88461	81.04022	41.53458	-121.92432	57.82192	150.39365	-105.12052	49.04824	342.10648	-196.83965	501.22046	202.16905	-192.45444	481.02109	376.48218	-207.49359	121.48428	178.93163	-222.32545	116.65710	
231	1.150	328.03537	-306.66211	1396.24768	417.18954	-206.35588	1539.26843	538.08112	-272.41385	1403.99390	703.56226	-265.43204	1405.50171	846.10443	-251.63187	1325.99878	964.74786	-193.47870	1379.62158	129.65517	-213.52589	1541.57019	-7.36153	-281.47198	1388.51062	-138.59271	-285.03851	1398.06580	-279.86005	-275.23785	1328.46106	-421.98160	-204.84834	1346.79724	251.13704	-311.52258	1031.50818	300.67160	-311.06787	1033.54492	396.68292	-97.29558	1019.41473	370.24442	-101.99267	691.93640	452.21890	-201.86685	520.41022	420.24356	-173.67436	444.50418	462.49622	-247.01199	110.94271	417.80154	-303.29083	76.34166	515.95996	-108.02712	62.03966	410.56622	-92.15989	57.14259	142.86186	-103.13946	997.91150	147.39717	-111.35679	663.56464	98.76688	-204.99881	519.19580	132.02405	-177.69057	444.17029	93.14486	-266.89883	111.13037	145.72923	-318.88293	81.02865	41.50066	-121.92620	57.83883	150.40613	-105.12036	49.02658	341.89737	-196.98524	501.28653	202.19276	-192.35669	481.03085	376.56177	-207.50784	121.47963	178.94159	-222.29897	116.65989	
232	1.155	328.03812	-306.71036	1396.22559	417.23257	-206.47588	1539.32971	538.06055	-272.41708	1403.97900	703.53735	-265.54712	1405.54138	846.10645	-251.67152	1326.00012	964.80066	-193.47874	1379.60254	129.63066	-213.56459	1541.59119	-7.39532	-281.47458	1388.48413	-138.62973	-285.05170	1398.02991	-279.83621	-275.26425	1328.43604	-422.05841	-204.92194	1346.82397	251.16696	-311.49985	1031.57300	300.68259	-311.14224	1033.53296	396.64923	-97.28500	1019.42126	370.28104	-102.05097	691.96259	452.20407	-201.84377	520.39020	420.18927	-173.70122	444.44073	462.48376	-247.09691	110.93462	417.79883	-303.31717	76.34826	515.96454	-108.00582	62.04757	410.57779	-92.10850	57.09940	142.93076	-103.14289	997.90424	147.42044	-111.45456	663.52344	98.80067	-204.98991	519.17181	132.02599	-177.67580	444.20450	93.16196	-266.93259	111.11671	145.75963	-318.88501	81.07188	41.52510	-121.94711	57.80935	150.41380	-105.18288	48.95692	342.12506	-196.88051	501.26715	202.17815	-192.42958	481.03610	376.50970	-207.52538	121.50019	178.92056	-222.36575	116.62671	
233	1.160	328.04919	-306.73532	1396.20581	417.15369	-206.38058	1539.27563	538.07922	-272.41660	1403.98328	703.54840	-265.52689	1405.49707	846.10223	-251.68820	1325.97742	964.73730	-193.52330	1379.60010	129.57352	-213.57974	1541.60608	-7.43251	-281.52524	1388.49695	-138.63588	-285.10522	1398.00439	-279.87552	-275.32315	1328.39417	-422.01404	-205.00894	1346.71130	251.13791	-311.54428	1031.53711	300.73898	-311.13696	1033.57397	396.67212	-97.25031	1019.39923	370.33777	-102.04370	691.90948	452.19766	-201.91135	520.43304	420.25330	-173.67598	444.51611	462.78671	-247.15637	110.89713	417.87158	-303.27731	76.28836	515.98859	-108.02139	62.03982	410.56857	-92.16022	57.12736	142.94827	-103.18778	997.94135	147.29456	-111.57258	663.49005	98.84283	-205.02396	519.21039	131.94896	-177.73009	444.16589	93.12594	-266.92502	111.12093	145.74876	-318.82516	80.95048	41.54220	-121.94906	57.80363	150.43259	-105.17128	49.01017	342.05472	-197.01978	501.28452	202.21391	-192.43903	481.00461	376.49921	-207.52806	121.46481	178.87718	-222.34198	116.57325	
234	1.165	328.06821	-306.71896	1396.21423	417.11679	-206.44867	1539.29529	538.05664	-272.44714	1403.96289	703.48163	-265.51801	1405.49414	846.08234	-251.65622	1325.96216	964.74481	-193.54128	1379.58618	129.56447	-213.70137	1541.56946	-7.37965	-281.68564	1388.50537	-138.64766	-285.16980	1398.01416	-279.91406	-275.30215	1328.32275	-421.97867	-205.06355	1346.72729	251.14987	-311.61505	1031.49719	300.69556	-311.19293	1033.53186	396.64850	-97.30056	1019.42871	370.34842	-102.11231	691.92664	452.21072	-201.88866	520.39490	420.26416	-173.68053	444.50339	462.46881	-247.05943	110.95167	417.87775	-303.24362	76.26823	515.93359	-107.84509	62.00619	410.54648	-92.10748	57.11465	142.98222	-103.19179	997.94751	147.38368	-111.58029	663.36719	98.79530	-205.11122	519.16449	131.99178	-177.77322	444.18790	93.12988	-266.90945	111.14182	145.72696	-318.87680	81.00192	41.53823	-122.00763	57.82334	150.39104	-105.15867	49.02964	342.10815	-196.94078	501.30222	202.19347	-192.48039	480.99811	376.54315	-207.51439	121.47218	178.82448	-222.32454	116.54694	
